<svg xmlns="http://www.w3.org/2000/svg" xmlns:xlink="http://www.w3.org/1999/xlink" width="421" height="303" viewBox="0 0 421 303">
    <defs>
        <path id="a" d="M2.894 2.226h53.614V22.15H2.894z"/>
    </defs>
    <g fill="none" fill-rule="evenodd">
        <path fill="#FFDA40" d="M253.839 53.614c-5.53 0-10.01-4.459-10.01-9.962v-33.43c0-5.5 4.48-9.963 10.01-9.963 5.527 0 10.01 4.462 10.01 9.962v33.431c0 5.503-4.483 9.962-10.01 9.962"/>
        <g transform="translate(363.562 153.497)">
            <mask id="b" fill="#fff">
                <use xlink:href="#a"/>
            </mask>
            <path fill="#FFDA40" d="M46.499 22.15H12.904c-5.53 0-10.01-4.462-10.01-9.962 0-5.503 4.48-9.962 10.01-9.962H46.5c5.526 0 10.01 4.459 10.01 9.962 0 5.5-4.484 9.962-10.01 9.962" mask="url(#b)"/>
        </g>
        <path fill="#FFDA40" d="M340.548 89.356a9.994 9.994 0 0 1-7.076-2.916 9.92 9.92 0 0 1 0-14.088l23.752-23.64c3.907-3.891 10.25-3.891 14.157 0a9.92 9.92 0 0 1 0 14.087l-23.756 23.64a9.994 9.994 0 0 1-7.077 2.917M167.127 89.356c-2.564 0-5.125-.974-7.08-2.916L136.294 62.8a9.926 9.926 0 0 1 0-14.088c3.91-3.891 10.247-3.891 14.157 0l23.756 23.637a9.936 9.936 0 0 1 0 14.09 10.026 10.026 0 0 1-7.08 2.917M364.303 285.574c-2.56 0-5.121-.974-7.076-2.917l-23.756-23.64a9.92 9.92 0 0 1 0-14.088c3.906-3.89 10.243-3.887 14.156 0l23.753 23.64a9.92 9.92 0 0 1 0 14.088 10.008 10.008 0 0 1-7.077 2.917"/>
        <path fill="#DDE4EF" d="M244.541 302.657H67.806C30.416 302.657 0 272.387 0 235.179c0-36.677 29.564-66.614 66.223-67.455 15.505-33.193 49.53-55.078 86.626-55.078 47.097 0 86.917 34.456 94.24 79.905 29.342 1.33 52.802 25.5 52.802 55.025 0 30.371-24.83 55.081-55.35 55.081"/>
        <path fill="#FFDA40" d="M229.49 119.13c16.997 14.496 29.234 33.592 35.268 54.716 22.882 5.414 41.379 21.498 50.213 42.59 11.567-13.77 18.596-31.442 18.596-50.753 0-43.748-35.766-79.34-79.729-79.34-18.442 0-35.405 6.315-48.927 16.816a113.292 113.292 0 0 1 24.578 15.97"/>
    </g>
</svg>
