<svg xmlns="http://www.w3.org/2000/svg" width="74" height="36" viewBox="0 0 74 36">
    <g fill="#444" fill-rule="evenodd">
        <path d="M33.787.69C26.271.123 19.973 6.102 19.973 13.53c0 .242.008.482.021.721h5.291a7.685 7.685 0 0 1-.034-.721c0-4.465 3.866-8.041 8.415-7.531 3.464.388 6.253 3.188 6.64 6.665.506 4.565-3.056 8.445-7.504 8.445H7.519v5.297h25.283c7.4 0 13.356-6.32 12.792-13.865-.47-6.295-5.534-11.378-11.807-11.85"/>
        <path d="M60.659 9.815c-7.074 0-12.83 5.777-12.83 12.877 0 .242.009.483.022.722h5.292a7.686 7.686 0 0 1-.036-.722c0-4.18 3.388-7.58 7.552-7.58s7.551 3.4 7.551 7.58c0 4.081-3.23 7.417-7.26 7.572v.008H.406v5.297h60.254c7.074 0 12.829-5.777 12.829-12.877 0-7.1-5.755-12.877-12.829-12.877"/>
    </g>
</svg>
