<svg xmlns="http://www.w3.org/2000/svg" width="30" height="30" viewBox="0 0 30 30">
    <path fill="#05C73C" fill-rule="evenodd" d="M15.255 23.708a9.056 9.056 0 0 1-8.462-5.905l1.78-.656a7.15 7.15 0 0 0 6.682 4.663 7.15 7.15 0 0 0 6.682-4.663l1.781.656a9.056 9.056 0 0 1-8.463 5.905m-4.81-14.142a2.214 2.214 0 1 1 0 4.429 2.214 2.214 0 0 1 0-4.429m9.62 0a2.214 2.214 0 1 1 0 4.429 2.214 2.214 0 0 1 0-4.429M15.255.298C7.305.298.861 6.742.861 14.692s6.445 14.394 14.394 14.394c7.95 0 14.395-6.444 14.395-14.394S23.205.298 15.255.298"/>
</svg>
