<svg xmlns="http://www.w3.org/2000/svg" width="51" height="51" viewBox="0 0 51 51">
    <path fill="#55B1FF" fill-rule="evenodd" d="M25.5 41.473c-6.66 0-12.685-4.204-14.992-10.461l3.155-1.163c1.822 4.941 6.579 8.26 11.837 8.26s10.015-3.319 11.837-8.26l3.155 1.163c-2.307 6.257-8.332 10.46-14.992 10.46M16.98 16.42a3.923 3.923 0 1 1 0 7.846 3.923 3.923 0 0 1 0-7.846m17.04 0a3.923 3.923 0 1 1 0 7.846 3.923 3.923 0 0 1 0-7.846M25.5 0C11.417 0 0 11.417 0 25.5S11.417 51 25.5 51 51 39.583 51 25.5 39.583 0 25.5 0"/>
</svg>
