<svg xmlns="http://www.w3.org/2000/svg" width="51" height="57" viewBox="0 0 51 57">
    <g fill="#444" fill-rule="evenodd">
        <path d="M25.352 56.05c-3.747 0-6.786-3.041-6.786-6.797V6.792A6.79 6.79 0 0 1 25.352 0a6.788 6.788 0 0 1 6.785 6.792v42.461a6.79 6.79 0 0 1-6.785 6.797"/>
        <path d="M43.71 45.435a6.748 6.748 0 0 1-3.386-.911L3.594 23.293A6.801 6.801 0 0 1 1.11 14.01a6.775 6.775 0 0 1 9.27-2.485l36.727 21.233a6.797 6.797 0 0 1 2.486 9.279 6.787 6.787 0 0 1-5.884 3.398"/>
        <path d="M6.994 45.435a6.785 6.785 0 0 1-5.884-3.398 6.797 6.797 0 0 1 2.486-9.28l36.727-21.232a6.78 6.78 0 0 1 9.27 2.485 6.801 6.801 0 0 1-2.484 9.283l-36.73 21.23a6.754 6.754 0 0 1-3.385.912"/>
    </g>
</svg>
