<svg xmlns="http://www.w3.org/2000/svg" xmlns:xlink="http://www.w3.org/1999/xlink" width="33" height="47" viewBox="0 0 33 47">
    <defs>
        <path id="a" d="M0 0h32.213v45.533H0z"/>
    </defs>
    <g fill="none" fill-rule="evenodd" transform="translate(.194 .802)">
        <mask id="b" fill="#fff">
            <use xlink:href="#a"/>
        </mask>
        <path fill="#444" d="M16.107 39.023c-5.33 0-9.664-4.38-9.664-9.765 0-.9.72-1.627 1.61-1.627.89 0 1.611.728 1.611 1.627 0 3.59 2.89 6.51 6.443 6.51.89 0 1.61.728 1.61 1.628 0 .899-.72 1.627-1.61 1.627M14.817.617C13.3 2.665 0 20.87 0 29.258c0 8.973 7.226 16.275 16.107 16.275 8.88 0 16.106-7.302 16.106-16.275 0-8.388-13.3-26.593-14.817-28.64-.607-.824-1.972-.824-2.58 0" mask="url(#b)"/>
    </g>
</svg>
