<svg xmlns="http://www.w3.org/2000/svg" xmlns:xlink="http://www.w3.org/1999/xlink" width="36" height="35" viewBox="0 0 36 35">
    <defs>
        <path id="a" d="M0 0h45.934v34.508H0z"/>
    </defs>
    <g fill="none" fill-rule="evenodd" transform="rotate(45 20.654 11.536)">
        <mask id="b" fill="#fff">
            <use xlink:href="#a"/>
        </mask>
        <path fill="#444" d="M44.774 15.099L28.984.897a3.49 3.49 0 0 0-4.935.264 3.515 3.515 0 0 0 .268 4.953l8.595 7.726H3.495A3.499 3.499 0 0 0 0 17.342a3.5 3.5 0 0 0 3.495 3.503h29.789l-8.883 7.48a3.491 3.491 0 0 0-1.246 2.685c0 .794.27 1.593.819 2.248a3.488 3.488 0 0 0 4.922.43l15.792-13.3a3.51 3.51 0 0 0 1.247-2.626c-.054-1.065-.408-1.984-1.16-2.663" mask="url(#b)"/>
    </g>
</svg>
