<svg xmlns="http://www.w3.org/2000/svg" xmlns:xlink="http://www.w3.org/1999/xlink" width="39" height="54" viewBox="0 0 39 54">
    <defs>
        <path id="a" d="M0 0h37.284v52.7H0z"/>
    </defs>
    <g fill="none" fill-rule="evenodd" transform="translate(.9 .4)">
        <mask id="b" fill="#fff">
            <use xlink:href="#a"/>
        </mask>
        <path fill="#444" d="M18.642 45.165c-6.168 0-11.185-5.07-11.185-11.301 0-1.041.834-1.884 1.864-1.884 1.03 0 1.864.843 1.864 1.884 0 4.155 3.344 7.534 7.457 7.534 1.03 0 1.864.843 1.864 1.884a1.873 1.873 0 0 1-1.864 1.883M17.149.715C15.394 3.084 0 24.155 0 33.864 0 44.249 8.363 52.7 18.642 52.7c10.278 0 18.642-8.45 18.642-18.836 0-9.709-15.394-30.78-17.15-33.15-.702-.952-2.282-.952-2.985 0" mask="url(#b)"/>
    </g>
</svg>
