<svg xmlns="http://www.w3.org/2000/svg" xmlns:xlink="http://www.w3.org/1999/xlink" width="211" height="140" viewBox="0 0 211 140">
    <defs>
        <path id="a" d="M0 .001h210.862v139.912H0z"/>
    </defs>
    <g fill="none" fill-rule="evenodd">
        <mask id="b" fill="#fff">
            <use xlink:href="#a"/>
        </mask>
        <path fill="#FFF" d="M173.52 129.42H83.025c-12.353 0-22.404-10.004-22.404-22.3 0-12.252 9.979-22.227 22.273-22.298l6.752.136-1.18-6.325a35.48 35.48 0 0 1-.609-6.492c0-19.527 15.965-35.415 35.585-35.415 19.528 0 35.435 15.737 35.58 35.14v7.375l6.79-2.03a26.876 26.876 0 0 1 7.71-1.134c14.776 0 26.798 11.965 26.798 26.67 0 14.706-12.022 26.672-26.798 26.672m0-63.837c-1.465 0-2.93.088-4.385.26-3.094-22.345-22.407-39.61-45.695-39.61-25.435 0-46.127 20.595-46.127 45.91 0 .885.026 1.773.078 2.666-15.491 2.666-27.315 16.14-27.315 32.311 0 18.08 14.78 32.794 32.947 32.794h90.497c20.592 0 37.342-16.673 37.342-37.166 0-20.492-16.75-37.165-37.342-37.165M73.365 10.493c9.35 0 17.841 3.635 24.2 9.524a58.26 58.26 0 0 1 10.745-4.034C99.844 6.205 87.318.001 73.365.001c-25.437 0-46.128 20.594-46.128 45.908 0 .883.028 1.772.08 2.664C11.821 51.24-.002 64.715-.002 80.887c0 18.081 14.78 32.791 32.949 32.791h5.312a45.002 45.002 0 0 1-.485-6.559c0-1.327.073-2.635.189-3.933h-5.016c-12.355 0-22.405-10.005-22.405-22.299 0-12.251 9.976-22.227 22.27-22.299l6.752.138-1.177-6.327a35.43 35.43 0 0 1-.61-6.49c0-19.53 15.964-35.416 35.587-35.416" mask="url(#b)"/>
    </g>
</svg>
