<svg xmlns="http://www.w3.org/2000/svg" xmlns:xlink="http://www.w3.org/1999/xlink" width="161" height="156" viewBox="0 0 161 156">
    <defs>
        <path id="a" d="M0 0h160.283v155.102H0z"/>
    </defs>
    <g fill="none" fill-rule="evenodd">
        <mask id="b" fill="#fff">
            <use xlink:href="#a"/>
        </mask>
        <path fill="#FFF" d="M83.548 148.53l8.713 5.886 5.616-8.597-8.715-5.884-5.614 8.594zm11.367-17.404l8.717 5.884 5.613-8.596-8.713-5.885-5.617 8.597zm-83.266 18.282l8.841 5.694 5.099-7.935-8.716-5.885-5.224 8.126zm95.493-73.182l-8.859-5.663-5.709 8.814 8.717 5.885 5.85-9.036zm-.854 37.494l8.713 5.886 5.617-8.599-8.714-5.883-5.616 8.596zm-46.97-19.026L50.6 88.807l-5.554 8.641 8.717 5.885 5.553-8.64zm21.957 2.136l8.713 5.885 5.583-8.622-8.714-5.885-5.582 8.622zm-22.602 34.902l8.712 5.885 5.585-8.62-8.716-5.884-5.58 8.619zm16.883-26.072l-5.582 8.62 8.714 5.886 5.581-8.62-8.713-5.886zm-28.185 43.523l8.714 5.885 5.582-8.62-8.712-5.885-5.584 8.62zM39.36 106.3l-5.556 8.64 8.716 5.885 5.554-8.639-8.714-5.886zM22.56 132.43l8.717 5.886 5.555-8.64-8.716-5.886-5.556 8.64zm100.496-92.967c-1.461 0-2.92.087-4.372.26C115.6 17.316 96.347 0 73.135 0 47.777 0 27.15 20.655 27.15 46.04c0 .886.026 1.78.079 2.674C11.784 51.387-.001 64.9-.001 81.119c0 15.49 10.766 28.482 25.193 31.948l5.485-9.696C19.373 102.275 10.51 92.716 10.51 81.12c0-12.282 9.942-22.285 22.191-22.361l6.72.011-1.154-6.219a35.994 35.994 0 0 1-.605-6.51c0-19.583 15.91-35.516 35.474-35.516 19.514 0 35.4 15.861 35.47 35.386l-.001 7.25 6.767-2.036a26.69 26.69 0 0 1 7.686-1.137c14.73 0 26.714 11.999 26.714 26.746 0 10.78-6.415 20.065-15.612 24.297l-7.358 12.784c18.773-1.886 33.483-17.794 33.483-37.081 0-20.55-16.703-37.27-37.227-37.27z" mask="url(#b)"/>
    </g>
</svg>
