<svg xmlns="http://www.w3.org/2000/svg" xmlns:xlink="http://www.w3.org/1999/xlink" width="170" height="170" viewBox="0 0 170 170">
    <defs>
        <path id="a" d="M1.605.306h10.218V27.67H1.605z"/>
        <path id="c" d="M0 1.198h27.363v10.219H0z"/>
    </defs>
    <g fill="none" fill-rule="evenodd">
        <path fill="#FFDA40" d="M84.84 125.53c-22.437 0-40.691-18.254-40.691-40.69 0-22.437 18.254-40.69 40.69-40.69 22.437 0 40.69 18.253 40.69 40.69 0 22.436-18.253 40.69-40.69 40.69"/>
        <g transform="translate(78.125 142.01)">
            <mask id="b" fill="#fff">
                <use xlink:href="#a"/>
            </mask>
            <path fill="#FFDA40" d="M6.714 27.67a5.11 5.11 0 0 1-5.11-5.11V5.418a5.11 5.11 0 1 1 10.219 0v17.144a5.11 5.11 0 0 1-5.11 5.109" mask="url(#b)"/>
        </g>
        <path fill="#FFDA40" d="M84.84 27.364a5.108 5.108 0 0 1-5.11-5.11V5.11a5.11 5.11 0 0 1 10.218 0v17.146a5.11 5.11 0 0 1-5.109 5.109"/>
        <g transform="translate(0 78.532)">
            <mask id="d" fill="#fff">
                <use xlink:href="#c"/>
            </mask>
            <path fill="#FFDA40" d="M22.254 11.417H5.11a5.11 5.11 0 0 1 0-10.219h17.145a5.11 5.11 0 0 1 0 10.219" mask="url(#d)"/>
        </g>
        <path fill="#FFDA40" d="M164.57 89.949h-17.146a5.11 5.11 0 0 1 0-10.218h17.145a5.11 5.11 0 0 1 0 10.218M28.462 146.327a5.11 5.11 0 0 1-3.613-8.72l12.124-12.125a5.106 5.106 0 0 1 7.223 0 5.107 5.107 0 0 1 .002 7.225L32.075 144.83a5.101 5.101 0 0 1-3.613 1.496M129.093 45.694a5.108 5.108 0 0 1-3.613-8.72l12.124-12.125a5.108 5.108 0 1 1 7.225 7.225L132.707 44.2a5.097 5.097 0 0 1-3.614 1.495M40.585 45.694c-1.309 0-2.616-.5-3.614-1.497L24.85 32.074a5.107 5.107 0 0 1 .002-7.225 5.108 5.108 0 0 1 7.223 0l12.124 12.125a5.11 5.11 0 0 1-3.613 8.72M141.217 146.327c-1.309 0-2.614-.5-3.613-1.496l-12.123-12.124a5.107 5.107 0 0 1 0-7.227 5.111 5.111 0 0 1 7.225 0l12.124 12.124a5.113 5.113 0 0 1 0 7.227 5.101 5.101 0 0 1-3.613 1.496"/>
    </g>
</svg>
