<svg xmlns="http://www.w3.org/2000/svg" xmlns:xlink="http://www.w3.org/1999/xlink" width="41" height="42" viewBox="0 0 41 42">
    <defs>
        <path id="a" d="M0 0h53.165v39.94H0z"/>
    </defs>
    <g fill="none" fill-rule="evenodd" transform="rotate(45 22.793 13.257)">
        <mask id="b" fill="#fff">
            <use xlink:href="#a"/>
        </mask>
        <path fill="#444" d="M51.822 17.476L33.546 1.038a4.04 4.04 0 0 0-5.712.306 4.069 4.069 0 0 0 .31 5.732l9.949 8.942H4.045A4.05 4.05 0 0 0 0 20.072a4.05 4.05 0 0 0 4.045 4.054h34.478l-10.28 8.658a4.04 4.04 0 0 0-1.443 3.107c0 .919.312 1.844.947 2.602a4.038 4.038 0 0 0 5.698.498l18.277-15.393a4.063 4.063 0 0 0 1.443-3.04c-.063-1.232-.472-2.297-1.343-3.082" mask="url(#b)"/>
    </g>
</svg>
