<svg xmlns="http://www.w3.org/2000/svg" xmlns:xlink="http://www.w3.org/1999/xlink" width="161" height="160" viewBox="0 0 161 160">
    <defs>
        <path id="a" d="M0 0h160.282v159.13H0z"/>
    </defs>
    <g fill="none" fill-rule="evenodd">
        <mask id="b" fill="#fff">
            <use xlink:href="#a"/>
        </mask>
        <path fill="#FFF" d="M21.025 153.902l9.122 5.228 4.74-8.306-9.12-5.225-4.742 8.303zm55.959-45.803l-22.382 39.199 9.125 5.226 22.378-39.196-9.121-5.23zm-26.17-6.369l-19.828 34.725 9.121 5.227 19.832-34.723-9.125-5.229zm29.438 52.172l9.125 5.228 4.825-8.453-9.121-5.23-4.83 8.455zm10.047-17.594l9.124 5.226 18.57-32.525-9.123-5.226-18.571 32.525zM69.53 90.158l-9.124-5.227-4.371 7.658 9.12 5.227 4.375-7.658zm53.527-50.672c-1.46 0-2.921.089-4.373.262-3.083-22.422-22.336-39.75-45.55-39.75-25.357 0-45.986 20.668-45.986 46.072 0 .885.025 1.78.08 2.673C11.785 51.42 0 64.942 0 81.168c0 17.116 13.113 31.208 29.803 32.753l5.926-10.376h-2.885c-12.314 0-22.334-10.039-22.334-22.377 0-12.295 9.953-22.308 22.209-22.376l6.748.27-1.197-6.482a35.664 35.664 0 0 1-.608-6.51c0-19.597 15.912-35.54 35.474-35.54 19.514 0 35.397 15.866 35.47 35.4l-.002 7.263 6.769-2.037a26.637 26.637 0 0 1 7.686-1.138c14.73 0 26.715 12.005 26.715 26.762 0 11.112-6.797 20.657-16.44 24.699l-7.1 12.434c19.043-1.622 34.049-17.642 34.049-37.133 0-20.564-16.699-37.294-37.224-37.294zM106.091 78.33l-9.128-5.227-14.76 25.855 9.123 5.228L106.09 78.33z" mask="url(#b)"/>
    </g>
</svg>
