<svg xmlns="http://www.w3.org/2000/svg" xmlns:xlink="http://www.w3.org/1999/xlink" width="159" height="174" viewBox="0 0 159 174">
    <defs>
        <path id="a" d="M0 .987h158.348v112.538H.001z"/>
    </defs>
    <g fill="none" fill-rule="evenodd">
        <path fill="#FFF" d="M68.52 99.654l-9.16-5.24-14.818 25.913 9.157 5.242zM84.716 94.425l-19.903 34.801 9.156 5.241 19.905-34.801zM16.838 168.775l9.16 5.239 22.461-39.285-9.155-5.24zM54.814 146.712l9.156 5.24 4.758-8.323-9.154-5.239z"/>
        <g transform="translate(0 -.683)">
            <mask id="b" fill="#fff">
                <use xlink:href="#a"/>
            </mask>
            <path fill="#FFF" d="M121.563 39.926c-1.438 0-2.873.085-4.3.254C114.204 18.068 95.187.987 72.254.987 47.2.987 26.817 21.376 26.817 46.44c0 .869.025 1.742.077 2.618C11.637 51.707 0 65.046 0 81.053c0 17.905 14.56 32.472 32.46 32.472v-10.43c-12.149 0-22.034-9.888-22.034-22.042 0-12.108 9.808-21.968 21.894-22.043l6.676.108-1.154-6.258a35.325 35.325 0 0 1-.6-6.42c0-19.312 15.706-35.023 35.011-35.023 19.24 0 34.902 15.601 35.012 34.82l-.003 7.26 6.714-2.019a26.333 26.333 0 0 1 7.586-1.122c14.534 0 26.36 11.828 26.36 26.37 0 8.23-3.803 15.888-10.26 20.87a15.56 15.56 0 0 1 3.65 9.244l.432.657c10.396-6.835 16.604-18.34 16.604-30.771 0-20.292-16.504-36.8-36.786-36.8" mask="url(#b)"/>
        </g>
        <path fill="#FFF" d="M105.282 143.985a5.197 5.197 0 0 1-3.686-1.528 5.213 5.213 0 0 1 0-7.374l20.735-20.742a5.206 5.206 0 0 1 7.372 0 5.213 5.213 0 0 1 0 7.374l-20.736 20.742a5.197 5.197 0 0 1-3.685 1.528"/>
        <path fill="#FFF" d="M126.017 143.985a5.197 5.197 0 0 1-3.686-1.528l-20.735-20.742a5.213 5.213 0 0 1 0-7.374 5.206 5.206 0 0 1 7.372 0l20.735 20.742a5.213 5.213 0 0 1 0 7.374 5.197 5.197 0 0 1-3.686 1.528"/>
    </g>
</svg>
