<svg xmlns="http://www.w3.org/2000/svg" xmlns:xlink="http://www.w3.org/1999/xlink" width="208" height="177" viewBox="0 0 208 177">
    <defs>
        <path id="a" d="M.126 1.217h103.156v103.79H.126z"/>
    </defs>
    <g fill="none" fill-rule="evenodd">
        <g transform="translate(104.717 -.785)">
            <mask id="b" fill="#fff">
                <use xlink:href="#a"/>
            </mask>
            <path fill="#FFF" d="M99.94 70.691a5.742 5.742 0 0 0-7.47 1.038 25.126 25.126 0 0 1-18.948 8.638c-13.837 0-25.095-11.24-25.095-25.053 0-13.814 11.258-25.053 25.095-25.053 7.616 0 14.734 3.401 19.53 9.33 1.144 1.415 2.87 2.148 4.557 2.13a5.733 5.733 0 0 0 4.947-8.523C93.928 13.75 74.671 1.216 53.333 1.216c-26.91 0-49.271 19.822-53.207 45.608a59.216 59.216 0 0 1 10.909 6.218c1.004-22.428 19.59-40.37 42.298-40.37 7.96 0 15.55 2.217 22.058 6.18a35.243 35.243 0 0 0-1.869-.047c-20.164 0-36.57 16.378-36.57 36.51 0 20.28 16.652 36.708 37.02 36.505a42.668 42.668 0 0 1-11.183 4.3 48.718 48.718 0 0 1 9.943 8.887c12.633-4.91 23.274-14.477 29.253-27.067a5.721 5.721 0 0 0-2.045-7.249" mask="url(#b)"/>
        </g>
        <path fill="#FFF" d="M36.553 114.93c-13.842.089-25.077 11.36-25.077 25.2 0 13.894 11.324 25.196 25.24 25.196h101.298c16.629 0 30.159-13.505 30.159-30.107 0-16.602-13.53-30.105-30.159-30.105-2.927 0-5.844.43-8.675 1.28l-7.392 2.22.003-7.973c-.118-21.913-18.012-39.707-39.994-39.707-22.05 0-39.993 17.91-39.993 39.925 0 2.407.23 4.869.684 7.316l1.278 6.871-7.372-.116zm101.461 61.852H36.716C16.47 176.782 0 160.34 0 140.13c0-18.127 13.249-33.225 30.586-36.146a50.753 50.753 0 0 1-.099-3.125c0-28.332 23.09-51.381 51.47-51.381 26.04 0 47.626 19.403 51.01 44.488a41.59 41.59 0 0 1 5.047-.308c22.958 0 41.635 18.643 41.635 41.56 0 22.92-18.677 41.564-41.635 41.564z"/>
    </g>
</svg>
