<svg xmlns="http://www.w3.org/2000/svg" xmlns:xlink="http://www.w3.org/1999/xlink" width="156" height="156" viewBox="0 0 156 156">
    <defs>
        <path id="a" d="M0 0h156.028v156.03H0z"/>
    </defs>
    <g fill="none" fill-rule="evenodd">
        <mask id="b" fill="#fff">
            <use xlink:href="#a"/>
        </mask>
        <path fill="#FFF" d="M117.937 43.715a5.608 5.608 0 0 0 3.974-1.646l11.267-11.263a5.618 5.618 0 0 0 0-7.952 5.62 5.62 0 0 0-7.952 0l-11.263 11.263a5.62 5.62 0 0 0 3.974 9.598zm-83.821 70.251l-11.267 11.261a5.62 5.62 0 0 0-.002 7.953 5.608 5.608 0 0 0 3.975 1.648c1.44 0 2.878-.55 3.977-1.647l11.267-11.263a5.618 5.618 0 0 0 0-7.952 5.618 5.618 0 0 0-7.95 0zm116.29-41.574h-15.932a5.623 5.623 0 0 0 0 11.246h15.932a5.624 5.624 0 0 0 0-11.246zm-123.23 5.624a5.624 5.624 0 0 0-5.624-5.624H5.62a5.623 5.623 0 0 0 0 11.246h15.93a5.625 5.625 0 0 0 5.624-5.622zm94.738 35.946a5.619 5.619 0 0 0-7.95 0 5.62 5.62 0 0 0 0 7.952l11.265 11.265a5.604 5.604 0 0 0 3.976 1.648 5.625 5.625 0 0 0 3.977-9.6l-11.268-11.265zM34.116 42.064a5.606 5.606 0 0 0 3.975 1.648c1.438 0 2.877-.55 3.975-1.648a5.618 5.618 0 0 0 0-7.951L30.802 22.849a5.621 5.621 0 0 0-7.95 0 5.62 5.62 0 0 0 0 7.951l11.264 11.264zm43.9 86.789a5.623 5.623 0 0 0-5.622 5.623v15.931a5.623 5.623 0 0 0 11.244 0v-15.93a5.62 5.62 0 0 0-5.622-5.624zm0-101.677a5.62 5.62 0 0 0 5.622-5.623V5.623a5.622 5.622 0 1 0-11.244 0v15.93a5.623 5.623 0 0 0 5.622 5.623zm0 81.999c-17.31 0-31.392-14.084-31.392-31.395 0-17.308 14.082-31.392 31.392-31.392s31.395 14.084 31.395 31.392c0 17.311-14.085 31.395-31.395 31.395zm0-74.033c-23.512 0-42.638 19.128-42.638 42.638 0 23.513 19.126 42.639 42.638 42.639 23.513 0 42.64-19.126 42.64-42.64 0-23.509-19.127-42.637-42.64-42.637z" mask="url(#b)"/>
    </g>
</svg>
