<svg xmlns="http://www.w3.org/2000/svg" xmlns:xlink="http://www.w3.org/1999/xlink" width="159" height="158" viewBox="0 0 159 158">
    <defs>
        <path id="a" d="M0 .014h158.348v112.501H.001z"/>
    </defs>
    <g fill="none" fill-rule="evenodd">
        <g transform="translate(0 .29)">
            <mask id="b" fill="#fff">
                <use xlink:href="#a"/>
            </mask>
            <path fill="#FFF" d="M121.563 38.94a36.46 36.46 0 0 0-4.3.254C114.204 17.089 95.187.014 72.254.014 47.2.014 26.817 20.396 26.817 45.45c0 .868.025 1.741.077 2.617C11.637 50.716 0 64.051 0 80.053c0 17.9 14.56 32.462 32.46 32.462V102.09c-12.149 0-22.034-9.885-22.034-22.036 0-12.103 9.808-21.96 21.894-22.036l6.676.108-1.154-6.255c-.4-2.15-.6-4.31-.6-6.419 0-19.305 15.706-35.011 35.011-35.011 19.24 0 34.902 15.596 35.012 34.81l-.003 7.256 6.714-2.018a26.34 26.34 0 0 1 7.586-1.122c14.534 0 26.36 11.825 26.36 26.362a26.29 26.29 0 0 1-10.26 20.864 15.553 15.553 0 0 1 3.65 9.24l.432.657c10.396-6.833 16.604-18.333 16.604-30.761 0-20.286-16.504-36.788-36.786-36.788" mask="url(#b)"/>
        </g>
        <path fill="#FFF" d="M125.717 101.737h-.005l-18.366.014 9.17-15.912a5.212 5.212 0 1 0-9.033-5.205l-9.17 15.912-9.195-15.899a5.214 5.214 0 0 0-9.025 5.221l9.196 15.897-18.366.015a5.214 5.214 0 0 0 .003 10.426h.005l18.364-.014-9.17 15.91a5.211 5.211 0 0 0 1.912 7.12 5.214 5.214 0 0 0 7.121-1.912l9.17-15.912 9.196 15.898a5.211 5.211 0 0 0 7.123 1.902 5.215 5.215 0 0 0 1.902-7.123l-9.195-15.898 18.365-.014a5.214 5.214 0 0 0-.002-10.426M38.863 157.986a5.192 5.192 0 0 1-3.686-1.527 5.208 5.208 0 0 1 0-7.37l20.735-20.737a5.21 5.21 0 0 1 7.372 0 5.211 5.211 0 0 1 0 7.373l-20.735 20.734a5.192 5.192 0 0 1-3.686 1.527"/>
        <path fill="#FFF" d="M59.598 157.986a5.192 5.192 0 0 1-3.685-1.527l-20.736-20.734a5.211 5.211 0 0 1 0-7.373 5.21 5.21 0 0 1 7.372 0l20.735 20.737a5.208 5.208 0 0 1 0 7.37 5.192 5.192 0 0 1-3.686 1.527"/>
    </g>
</svg>
