<svg xmlns="http://www.w3.org/2000/svg" xmlns:xlink="http://www.w3.org/1999/xlink" width="145" height="150" viewBox="0 0 145 150">
    <defs>
        <path id="a" d="M.95.226h143.824v144.96H.95z"/>
        <path id="c" d="M0 1.922h102.18V88H0z"/>
    </defs>
    <g fill="none" fill-rule="evenodd">
        <g transform="translate(0 -.226)">
            <mask id="b" fill="#fff">
                <use xlink:href="#a"/>
            </mask>
            <path fill="#FFF" d="M140.114 97.256c-3.34-2.188-7.79-1.566-10.414 1.45a35.007 35.007 0 0 1-26.418 12.066c-19.292 0-34.988-15.7-34.988-34.992 0-19.292 15.696-34.99 34.988-34.99 10.618 0 20.542 4.75 27.23 13.032 1.594 1.974 4 3 6.352 2.974a7.998 7.998 0 0 0 7.91-8 7.987 7.987 0 0 0-1.012-3.902A74.997 74.997 0 0 0 75.134.226C37.614.226 6.438 27.91.95 63.922c1.832 4.498 10.496 11.284 15.21 14.684-.41-35.792 27.314-62.38 58.974-62.38a58.983 58.983 0 0 1 30.754 8.63 51.27 51.27 0 0 0-2.606-.066c-28.114 0-50.988 22.876-50.988 50.99 0 28.326 23.218 51.272 51.616 50.988-4.862 2.72-14.116 4.736-19.592 6.004 5.182 3.492 6.922 10.802 17.862 12.414 17.614-6.858 32.45-20.222 40.786-37.806a8 8 0 0 0-2.852-10.124" mask="url(#b)"/>
        </g>
        <g transform="translate(0 61.774)">
            <mask id="d" fill="#fff">
                <use xlink:href="#c"/>
            </mask>
            <path fill="#FFF" d="M86.163 70.328c-18.758 4.04-36.076 1.678-54.45-16.352-13.602-13.348-15.988-29.27-15.696-39.958L.95 1.922s-8.476 41.854 25.222 69.786C59.87 99.64 102.18 83.184 102.18 83.184L86.163 70.328z" mask="url(#d)"/>
        </g>
    </g>
</svg>
