<svg xmlns="http://www.w3.org/2000/svg" xmlns:xlink="http://www.w3.org/1999/xlink" width="216" height="168" viewBox="0 0 216 168">
    <defs>
        <path id="a" d="M0 0h215.637v167.358H0z"/>
    </defs>
    <g fill="none" fill-rule="evenodd">
        <mask id="b" fill="#fff">
            <use xlink:href="#a"/>
        </mask>
        <path fill="#FFF" d="M178.333 156.815H87.924c-12.342 0-22.383-10.05-22.383-22.402 0-12.309 9.968-22.33 22.252-22.403l6.745.14-1.177-6.357a35.927 35.927 0 0 1-.608-6.52c0-19.62 15.946-35.58 35.547-35.58 19.558 0 35.478 15.887 35.55 35.445l-.002 7.267 6.783-2.04a26.806 26.806 0 0 1 7.702-1.139c14.762 0 26.774 12.02 26.774 26.794 0 14.775-12.012 26.795-26.774 26.795zm0-64.131a37.04 37.04 0 0 0-4.382.26c-3.09-22.447-22.385-39.794-45.65-39.794-25.41 0-46.081 20.692-46.081 46.122 0 .89.026 1.783.08 2.678-15.48 2.679-27.292 16.216-27.292 32.463 0 18.166 14.767 32.945 32.916 32.945h90.41c20.571 0 37.303-16.75 37.303-37.338 0-20.587-16.732-37.336-37.304-37.336zm-118.611 6.42c-9.513-4.881-16.05-14.775-16.05-26.187 0-16.227 13.19-29.431 29.405-29.431 8.115 0 15.474 3.31 20.799 8.648a58.421 58.421 0 0 1 9.223-5.536c-7.327-8.36-18.066-13.653-30.022-13.653-22.021 0-39.939 17.93-39.939 39.972 0 14.335 7.584 26.927 18.942 33.983a45.542 45.542 0 0 1 7.642-7.796zm50.747-58.123a5.247 5.247 0 0 0 3.723-1.543l10.551-10.56a5.276 5.276 0 0 0 .003-7.454 5.264 5.264 0 0 0-7.449-.001l-10.552 10.56a5.276 5.276 0 0 0-.002 7.455 5.253 5.253 0 0 0 3.726 1.543zM31.955 106.84l-10.554 10.558a5.276 5.276 0 0 0-.001 7.455 5.249 5.249 0 0 0 3.725 1.545 5.245 5.245 0 0 0 3.723-1.543l10.555-10.56a5.275 5.275 0 0 0 0-7.455 5.264 5.264 0 0 0-7.448 0zm0-67.405a5.247 5.247 0 0 0 3.724 1.545 5.272 5.272 0 0 0 3.724-8.998L28.852 21.42a5.261 5.261 0 0 0-7.447 0 5.27 5.27 0 0 0 0 7.453l10.55 10.56zm41.122-13.957a5.268 5.268 0 0 0 5.265-5.272V5.27c0-2.91-2.358-5.27-5.265-5.27a5.269 5.269 0 0 0-5.268 5.27v14.935a5.27 5.27 0 0 0 5.268 5.272zm-47.622 47.66a5.27 5.27 0 0 0-5.268-5.272H5.265A5.269 5.269 0 0 0 0 73.137a5.27 5.27 0 0 0 5.266 5.27h14.922a5.27 5.27 0 0 0 5.268-5.27z" mask="url(#b)"/>
    </g>
</svg>
