<svg xmlns="http://www.w3.org/2000/svg" width="85" height="42" viewBox="0 0 85 42">
    <g fill="#444" fill-rule="evenodd">
        <path d="M38.837.743c-8.7-.656-15.989 6.264-15.989 14.86 0 .281.01.56.025.836h6.124a8.895 8.895 0 0 1-.04-.835c0-5.168 4.475-9.307 9.74-8.717 4.009.45 7.237 3.69 7.684 7.715.587 5.283-3.536 9.774-8.684 9.774H8.433v6.131h29.264c8.564 0 15.458-7.315 14.805-16.047C51.958 7.173 46.097 1.29 38.837.743"/>
        <path d="M69.939 11.304c-8.188 0-14.849 6.686-14.849 14.904 0 .28.01.559.025.836h6.124a8.896 8.896 0 0 1-.04-.836c0-4.837 3.92-8.772 8.74-8.772 4.819 0 8.74 3.935 8.74 8.772 0 4.724-3.74 8.585-8.403 8.764v.01H.2v6.13h69.739c8.187 0 14.848-6.686 14.848-14.904S78.126 11.304 69.94 11.304"/>
    </g>
</svg>
