<svg xmlns="http://www.w3.org/2000/svg" width="45" height="49" viewBox="0 0 45 49">
    <g fill="#444" fill-rule="evenodd">
        <path d="M22.584 48.427a5.867 5.867 0 0 1-5.863-5.872V5.868A5.866 5.866 0 0 1 22.584 0a5.865 5.865 0 0 1 5.863 5.868v36.687a5.866 5.866 0 0 1-5.863 5.872"/>
        <path d="M38.445 39.256a5.83 5.83 0 0 1-2.925-.788L3.785 20.125a5.876 5.876 0 0 1-2.146-8.02 5.854 5.854 0 0 1 8.01-2.148L41.38 28.303a5.873 5.873 0 0 1 2.148 8.017 5.864 5.864 0 0 1-5.084 2.936"/>
        <path d="M6.723 39.256a5.862 5.862 0 0 1-5.084-2.936 5.873 5.873 0 0 1 2.148-8.017L35.519 9.957a5.858 5.858 0 0 1 8.01 2.147 5.876 5.876 0 0 1-2.147 8.021L9.648 38.468a5.835 5.835 0 0 1-2.925.788"/>
    </g>
</svg>
